<svg xmlns="http://www.w3.org/2000/svg" viewBox="0 0 362.46 410.16"><defs><style>.cls-1{fill:#25a9e0;}.cls-2{fill:#1b75bb;}</style></defs><title>Properti</title><g id="Layer_2" data-name="Layer 2"><g id="Logo"><polygon class="cls-1" points="0 104.63 0 313.9 173.11 410.16 173.11 355.57 173.11 121.2 113.37 176.58 113.37 322.62 99.04 314.81 99.04 188.16 62.13 220.92 62.13 294.71 47.27 286.61 47.27 131.93 181.23 54.58 181.23 0 0 104.63"/><polygon class="cls-2" points="181.23 0 181.23 54.58 315.19 131.93 315.19 286.61 300.32 294.71 300.32 220.92 263.42 188.16 263.42 314.81 249.09 322.62 249.09 176.58 189.35 121.2 189.35 355.57 189.35 410.16 362.46 313.9 362.46 104.63 181.23 0"/></g></g></svg>